<svg width="8" height="9" viewBox="0 0 8 9" fill="none" xmlns="http://www.w3.org/2000/svg">
<path d="M1.67181 9V7.368H0.627813V6.588H1.67181V5.52H0.627813V4.608H1.67181V0.431999H3.92781C4.97581 0.431999 5.75181 0.644 6.25581 1.068C6.76781 1.492 7.02381 2.108 7.02381 2.916C7.02381 3.732 6.74781 4.372 6.19581 4.836C5.64381 5.292 4.83181 5.52 3.75981 5.52H2.75181V6.588H4.73181V7.368H2.75181V9H1.67181ZM2.75181 4.608H3.60381C4.33181 4.608 4.89581 4.488 5.29581 4.248C5.70381 4.008 5.90781 3.576 5.90781 2.952C5.90781 2.408 5.73981 2.004 5.40381 1.74C5.06781 1.476 4.54381 1.344 3.83181 1.344H2.75181V4.608Z" fill="white"/>
</svg>
